<?xml version="1.0" standalone="no"?>
<!DOCTYPE svg PUBLIC "-//W3C//DTD SVG 20010904//EN"
 "http://www.w3.org/TR/2001/REC-SVG-20010904/DTD/svg10.dtd">
<svg version="1.0" xmlns="http://www.w3.org/2000/svg"
 width="99.000000pt" height="25.000000pt" viewBox="0 0 99.000000 25.000000"
 preserveAspectRatio="xMidYMid meet">

<g transform="translate(0.000000,25.000000) scale(0.100000,-0.100000)"
fill="#000000" stroke="none">
<path d="M740 216 c0 -9 7 -16 16 -16 17 0 14 22 -4 28 -7 2 -12 -3 -12 -12z"/>
<path d="M35 155 c-14 -13 -25 -36 -25 -50 0 -61 87 -98 126 -53 l19 21 -26
-17 c-45 -29 -76 3 -75 74 1 28 5 35 21 35 11 0 24 -10 30 -22 11 -26 14 -27
35 -13 13 9 12 13 -9 30 -31 27 -67 25 -96 -5z"/>
<path d="M170 175 c0 -17 93 -145 105 -145 20 0 19 5 -7 51 -18 33 -19 41 -8
56 12 15 12 16 0 6 -20 -18 -25 -16 -38 12 -7 15 -20 25 -32 25 -11 0 -20 -2
-20 -5z"/>
<path d="M335 155 c-14 -13 -25 -36 -25 -50 0 -35 42 -75 77 -74 16 0 21 3 13
6 -31 12 -50 37 -50 68 0 31 19 56 50 68 8 3 3 6 -13 6 -17 1 -37 -9 -52 -24z"/>
<path d="M472 119 c3 -57 6 -65 30 -78 30 -17 78 -7 86 19 4 13 3 13 -11 2 -9
-8 -26 -12 -39 -10 -20 3 -24 10 -28 63 -4 47 -9 61 -23 63 -16 3 -18 -3 -15
-59z"/>
<path d="M630 105 c0 -60 3 -75 15 -75 11 0 15 13 15 54 0 45 4 58 22 70 12 9
19 19 15 22 -4 4 -13 1 -22 -6 -10 -8 -15 -9 -15 -1 0 6 -7 11 -15 11 -12 0
-15 -15 -15 -75z"/>
<path d="M830 160 c-27 -27 -27 -83 2 -110 48 -44 118 -11 118 55 0 44 -29 75
-70 75 -17 0 -39 -9 -50 -20z m62 -7 c23 -26 29 -77 13 -99 -13 -18 -14 -18
-33 -1 -24 22 -35 72 -22 98 13 24 23 24 42 2z"/>
<path d="M740 100 c0 -56 3 -70 15 -70 12 0 15 14 15 70 0 56 -3 70 -15 70
-12 0 -15 -14 -15 -70z"/>
</g>
</svg>
